<?xml version="1.0" standalone="no"?>
<!DOCTYPE svg PUBLIC "-//W3C//DTD SVG 20010904//EN"
 "http://www.w3.org/TR/2001/REC-SVG-20010904/DTD/svg10.dtd">
<svg version="1.0" xmlns="http://www.w3.org/2000/svg"
 width="512.000000pt" height="512.000000pt" viewBox="0 0 512.000000 512.000000"
 preserveAspectRatio="xMidYMid meet">
<metadata>
Created by potrace 1.14, written by Peter Selinger 2001-2017
</metadata>
<g transform="translate(0.000000,512.000000) scale(0.100000,-0.100000)"
fill="#000000" stroke="none">
<path d="M2379 5116 c-2 -2 -40 -6 -83 -10 -44 -4 -82 -8 -85 -10 -3 -2 -31
-7 -61 -11 -30 -3 -75 -11 -100 -17 -25 -5 -56 -12 -70 -14 -96 -19 -332 -97
-440 -146 -356 -161 -631 -360 -885 -640 -119 -131 -241 -299 -318 -440 -71
-129 -84 -155 -124 -248 -143 -328 -203 -613 -208 -990 -3 -217 6 -335 39
-510 94 -494 343 -966 701 -1324 395 -396 888 -645 1450 -732 73 -11 184 -18
330 -19 246 -3 352 6 549 46 285 59 622 192 814 320 24 16 45 29 48 29 8 0
187 131 263 193 40 33 120 107 177 164 408 409 669 956 731 1528 10 90 10 428
0 525 -42 428 -196 851 -435 1195 -318 458 -762 797 -1276 974 -104 36 -284
85 -356 97 -70 11 -85 14 -195 30 -44 6 -460 15 -466 10z"/>
</g>
</svg>
